<?xml version="1.0" encoding="UTF-8" standalone="no"?>
<svg
   xmlns:dc="http://purl.org/dc/elements/1.1/"
   xmlns:cc="http://creativecommons.org/ns#"
   xmlns:rdf="http://www.w3.org/1999/02/22-rdf-syntax-ns#"
   xmlns:svg="http://www.w3.org/2000/svg"
   xmlns="http://www.w3.org/2000/svg"
   xmlns:sodipodi="http://sodipodi.sourceforge.net/DTD/sodipodi-0.dtd"
   xmlns:inkscape="http://www.inkscape.org/namespaces/inkscape"
   viewBox="0 0 32 32"
   version="1.1"
   id="svg6"
   sodipodi:docname="icon_compare.svg"
   inkscape:version="0.92.3 (2405546, 2018-03-11)">
  <metadata
     id="metadata12">
    <rdf:RDF>
      <cc:Work
         rdf:about="">
        <dc:format>image/svg+xml</dc:format>
        <dc:type
           rdf:resource="http://purl.org/dc/dcmitype/StillImage" />
      </cc:Work>
    </rdf:RDF>
  </metadata>
  <defs
     id="defs10" />
  <sodipodi:namedview
     pagecolor="#ffffff"
     bordercolor="#666666"
     borderopacity="1"
     objecttolerance="10"
     gridtolerance="10"
     guidetolerance="10"
     inkscape:pageopacity="0"
     inkscape:pageshadow="2"
     inkscape:window-width="2560"
     inkscape:window-height="1377"
     id="namedview8"
     showgrid="false"
     inkscape:zoom="7.375"
     inkscape:cx="16"
     inkscape:cy="16"
     inkscape:window-x="1912"
     inkscape:window-y="-8"
     inkscape:window-maximized="1"
     inkscape:current-layer="svg6" />
  <path
     d="m28 6h-10v-2a2 2 0 0 0 -2-2h-12a2 2 0 0 0 -2 2v20a2 2 0 0 0 2 2h10v2a2 2 0 0 0 2 2h12a2 2 0 0 0 2-2v-20a2 2 0 0 0 -2-2zm-24 9h6.17l-2.58 2.59 1.41 1.41 5-5-5-5-1.41 1.41 2.58 2.59h-6.17v-9h12v20h-12zm12 13v-2a2 2 0 0 0 2-2v-16h10v9h-6.17l2.58-2.59-1.41-1.41-5 5 5 5 1.41-1.41-2.58-2.59h6.17v9z"
     id="path2"
     style="fill:#c3ccdf;fill-opacity:1" />
  <path
     d="m0 0h32v32h-32z"
     fill="none"
     id="path4" />
</svg>
