<?xml version="1.0" encoding="UTF-8" standalone="no"?>
<svg
   xmlns:dc="http://purl.org/dc/elements/1.1/"
   xmlns:cc="http://creativecommons.org/ns#"
   xmlns:rdf="http://www.w3.org/1999/02/22-rdf-syntax-ns#"
   xmlns:svg="http://www.w3.org/2000/svg"
   xmlns="http://www.w3.org/2000/svg"
   xmlns:sodipodi="http://sodipodi.sourceforge.net/DTD/sodipodi-0.dtd"
   xmlns:inkscape="http://www.inkscape.org/namespaces/inkscape"
   width="24"
   height="24"
   viewBox="0 0 24 24"
   fill="none"
   version="1.1"
   id="svg4"
   sodipodi:docname="icon_upload.svg"
   inkscape:version="0.92.3 (2405546, 2018-03-11)">
  <metadata
     id="metadata10">
    <rdf:RDF>
      <cc:Work
         rdf:about="">
        <dc:format>image/svg+xml</dc:format>
        <dc:type
           rdf:resource="http://purl.org/dc/dcmitype/StillImage" />
      </cc:Work>
    </rdf:RDF>
  </metadata>
  <defs
     id="defs8" />
  <sodipodi:namedview
     pagecolor="#ffffff"
     bordercolor="#666666"
     borderopacity="1"
     objecttolerance="10"
     gridtolerance="10"
     guidetolerance="10"
     inkscape:pageopacity="0"
     inkscape:pageshadow="2"
     inkscape:window-width="1920"
     inkscape:window-height="1017"
     id="namedview6"
     showgrid="false"
     inkscape:zoom="9.8333333"
     inkscape:cx="12"
     inkscape:cy="12"
     inkscape:window-x="-8"
     inkscape:window-y="-8"
     inkscape:window-maximized="1"
     inkscape:current-layer="svg4" />
  <path
     d="M11 4a4 4 0 0 0-3.999 4.102 1 1 0 0 1-.75.992A3.002 3.002 0 0 0 7 15h1a1 1 0 1 1 0 2H7a5 5 0 0 1-1.97-9.596 6 6 0 0 1 11.169-2.4A6 6 0 0 1 16 17a1 1 0 1 1 0-2 4 4 0 1 0-.328-7.987 1 1 0 0 1-.999-.6A4.001 4.001 0 0 0 11 4zm.293 5.293a1 1 0 0 1 1.414 0l2 2a1 1 0 0 1-1.414 1.414L13 12.414V20a1 1 0 1 1-2 0v-7.586l-.293.293a1 1 0 0 1-1.414-1.414l2-2z"
     fill="#0D0D0D"
     id="path2"
     style="fill:#b3b3b3;fill-opacity:1" />
</svg>
